<?xml version="1.0" encoding="utf-8"?>
<!-- Generator: Adobe Illustrator 24.2.1, SVG Export Plug-In . SVG Version: 6.00 Build 0)  -->
<!DOCTYPE svg PUBLIC "-//W3C//DTD SVG 1.1//EN" "http://www.w3.org/Graphics/SVG/1.1/DTD/svg11.dtd" [
	<!ENTITY ns_extend "http://ns.adobe.com/Extensibility/1.0/">
	<!ENTITY ns_ai "http://ns.adobe.com/AdobeIllustrator/10.0/">
	<!ENTITY ns_graphs "http://ns.adobe.com/Graphs/1.0/">
	<!ENTITY ns_vars "http://ns.adobe.com/Variables/1.0/">
	<!ENTITY ns_imrep "http://ns.adobe.com/ImageReplacement/1.0/">
	<!ENTITY ns_sfw "http://ns.adobe.com/SaveForWeb/1.0/">
	<!ENTITY ns_custom "http://ns.adobe.com/GenericCustomNamespace/1.0/">
	<!ENTITY ns_adobe_xpath "http://ns.adobe.com/XPath/1.0/">
]>
<svg version="1.1" id="Layer_1" xmlns:x="&ns_extend;" xmlns:i="&ns_ai;" xmlns:graph="&ns_graphs;"
	 xmlns="http://www.w3.org/2000/svg" xmlns:xlink="http://www.w3.org/1999/xlink" x="0px" y="0px" viewBox="0 0 32 32"
	 style="enable-background:new 0 0 32 32;" xml:space="preserve">
<style type="text/css">
	.st0{display:none;}
	.st1{display:inline;}
	.st2{display:inline;clip-path:url(#SVGID_2_);}
</style>
<metadata>
	<sfw  xmlns="&ns_sfw;">
		<slices></slices>
		<sliceSourceBounds  bottomLeftOrigin="true" height="44.8" width="79.4" x="0" y="-12.8"></sliceSourceBounds>
	</sfw>
</metadata>
<g class="st0">
	<defs>
		<rect id="SVGID_1_" width="32" height="32"/>
	</defs>
	<clipPath id="SVGID_2_" class="st1">
		<use xlink:href="#SVGID_1_"  style="overflow:visible;"/>
	</clipPath>
	<g class="st2">
		<path d="M79.4,36.1v-1.7c0-0.2-0.1-0.3-0.3-0.2l-7.9,2.3c0,0-0.1,0-0.1,0.1c-0.8,0.9-1.6,1.6-1.8,1.7l0,0
			c-0.5,0.4-1.1,0.6-1.7,0.6h-2.9V36H67c0.1,0,0.1,0,0.2-0.1l0.3-0.3c0.1-0.1,0.3-0.3,0.5-0.4c0,0,0,0,0,0c0.1-0.1,0.2-0.2,0.3-0.3
			c0.1-0.1,0.2-0.2,0.3-0.4c0.2-0.2,0.3-0.4,0.5-0.6c0.1-0.1,0.2-0.3,0.4-0.5c0.1-0.1,0.3-0.3,0.4-0.5c0-0.1,0.1-0.1,0.1-0.2
			c0-0.1,0.1-0.1,0.1-0.2c0.1-0.1,0.2-0.3,0.2-0.4c0.2-0.3,0.4-0.7,0.6-1.1c0.1-0.2,0.1-0.3,0.2-0.5c0,0,0,0,0-0.1
			c0.1-0.2,0.1-0.4,0.2-0.6c0.1-0.4,0.1-0.9,0.1-1.3c0-0.1,0-0.3-0.1-0.4v0c0-0.1,0-0.2-0.1-0.3c-0.1-0.4-0.2-0.9-0.4-1.3
			c-0.1-0.2-0.1-0.3-0.2-0.5c-0.2-0.3-0.3-0.6-0.6-0.9c0-0.1-0.1-0.1-0.1-0.2c0-0.1-0.1-0.1-0.1-0.2c-0.1-0.2-0.3-0.4-0.4-0.6
			c0,0-0.1-0.1-0.1-0.1c-0.1-0.1-0.2-0.2-0.3-0.3c0-0.1-0.1-0.1-0.1-0.2c-0.1-0.2-0.3-0.3-0.4-0.5c-0.5-0.6-1-1.1-1.5-1.5
			c-0.1-0.1-0.2-0.2-0.3-0.3c-0.4-0.3-0.7-0.6-1-0.8c-0.1-0.1-0.2-0.1-0.2-0.2c0,0-0.1-0.1-0.1-0.1c-0.1-0.1-0.2-0.1-0.2-0.2
			c0,0-0.1-0.1-0.1-0.1c0,0,0,0-0.1,0L64.7,20v-2.5c0-0.4-0.2-0.8-0.4-1s-0.6-0.4-1-0.4c-0.8,0-1.5,0.7-1.5,1.5v1.7l-0.2,0L61.2,19
			l-0.4-0.1c0,0,0,0,0,0c0,0,0,0,0,0h0l-2.9-0.8c-0.1,0-0.2,0.1-0.2,0.2l0.5,0.8c0,0.1,0.1,0.1,0.1,0.2c0,0,0,0.1,0.1,0.1
			c0.1,0.1,0.1,0.3,0.2,0.5c0.1,0.1,0.1,0.3,0.2,0.4c0,0.1,0.1,0.1,0.1,0.2c0.1,0.3,0.2,0.5,0.4,0.8l0,0c0.1,0.3,0.2,0.5,0.3,0.8
			c0.3,0.7,0.5,1.4,0.7,2.1c0.1,0.2,0.1,0.3,0.1,0.5c0,0.1,0,0.1,0.1,0.2l0,0.1c0.1,0.3,0.2,0.7,0.2,1c0,0.2,0.1,0.5,0.1,0.7
			c0,0.3,0.1,0.5,0.1,0.8c0,0.2,0,0.5,0,0.7c0,0.6-0.1,1.2-0.2,1.7c0,0,0,0.1,0,0.1c0,0.1-0.1,0.3-0.1,0.4c0,0.1-0.1,0.3-0.1,0.4
			c0,0.1,0,0.1-0.1,0.2c0,0,0,0,0,0c0,0.1-0.1,0.2-0.1,0.3c-0.3,0.6-0.6,1.3-0.9,1.9c-0.5,0.9-1,1.6-1.3,2.1c0,0,0,0.1-0.1,0.1
			c0,0,0,0.1-0.1,0.1c-0.1,0.2,0,0.4,0.2,0.4h3.7v2.9H58c-1,0-1.9-0.6-2.4-1.5c-0.2-0.5-0.3-1-0.3-1.4c0-0.1-0.1-0.3-0.2-0.3h-7.5
			c-0.1,0-0.2,0.1-0.2,0.2v0.2c0,4.8,3.9,8.7,8.7,8.7h13.5c2.5,0,4-2.3,5.4-4.6c0.4-0.6,0.8-1.3,1.2-1.8c0.7-1,2.5-1.9,3.1-2.1
			C79.3,36.3,79.4,36.2,79.4,36.1z"/>
		<path d="M49.4,32.3l-0.1,0.2c-0.1,0.2,0,0.4,0.2,0.4h6.9c0.1,0,0.1,0,0.2-0.1c0.1-0.1,0.2-0.3,0.3-0.4c0.6-1,1.1-2.1,1.3-2.9
			c0.5-2-0.5-5.1-1.6-7.6c-0.1-0.2-0.3-0.2-0.4,0L49.4,32.3z"/>
	</g>
</g>
<path d="M15.7,1.5c0-0.1,0.1-0.1,0.1-0.2c2.3,3.4,4.6,6.9,6.9,10.3c-5.2,4-10.4,8-15.7,12c-1.4,0-2.9,0-4.3,0
	c1.6-2.7,3.2-5.5,4.8-8.2c1.3-2.2,2.5-4.4,3.8-6.6L15.7,1.5z M1.5,22c1.9-3.3,3.8-6.6,5.8-9.9l0-0.1c-2.4-1.7-4.7-3.3-7.1-5
	C0.6,12,1.1,17,1.5,22z M30.4,23.8c0.5-5.5,1-11,1.4-16.5c-7.1,5.5-14.3,11-21.4,16.5L30.4,23.8z M1.5,29.1h28.8v-3.5H1.5
	C1.5,26.8,1.5,28,1.5,29.1L1.5,29.1z"/>
</svg>
