<?xml version="1.0" encoding="utf-8"?>
<!-- Generator: Adobe Illustrator 24.2.1, SVG Export Plug-In . SVG Version: 6.00 Build 0)  -->
<!DOCTYPE svg PUBLIC "-//W3C//DTD SVG 1.1//EN" "http://www.w3.org/Graphics/SVG/1.1/DTD/svg11.dtd" [
	<!ENTITY ns_extend "http://ns.adobe.com/Extensibility/1.0/">
	<!ENTITY ns_ai "http://ns.adobe.com/AdobeIllustrator/10.0/">
	<!ENTITY ns_graphs "http://ns.adobe.com/Graphs/1.0/">
	<!ENTITY ns_vars "http://ns.adobe.com/Variables/1.0/">
	<!ENTITY ns_imrep "http://ns.adobe.com/ImageReplacement/1.0/">
	<!ENTITY ns_sfw "http://ns.adobe.com/SaveForWeb/1.0/">
	<!ENTITY ns_custom "http://ns.adobe.com/GenericCustomNamespace/1.0/">
	<!ENTITY ns_adobe_xpath "http://ns.adobe.com/XPath/1.0/">
]>
<svg version="1.1" id="Layer_1" xmlns:x="&ns_extend;" xmlns:i="&ns_ai;" xmlns:graph="&ns_graphs;"
	 xmlns="http://www.w3.org/2000/svg" xmlns:xlink="http://www.w3.org/1999/xlink" x="0px" y="0px" viewBox="0 0 24 24"
	 style="enable-background:new 0 0 24 24;" xml:space="preserve">
<style type="text/css">
	.st0{fill:#F9F9F9;}
</style>
<metadata>
	<sfw  xmlns="&ns_sfw;">
		<slices></slices>
		<sliceSourceBounds  bottomLeftOrigin="true" height="24" width="24" x="0" y="0"></sliceSourceBounds>
	</sfw>
</metadata>
<path class="st0" d="M12,0C5.4,0,0,5.4,0,12c0,6.6,5.4,12,12,12c6.6,0,12-5.4,12-12C24,5.4,18.6,0,12,0L12,0z M20.6,7.4H17
	c-0.3-1.7-0.8-3.1-1.3-4.5L15.7,3C17.8,3.9,19.5,5.4,20.6,7.4L20.6,7.4z M21.7,12c0,0.8-0.1,1.6-0.3,2.3l0-0.1h-4.1
	c0.1-0.7,0.1-1.5,0.1-2.3s0-1.6-0.1-2.4l0,0.1h4.1C21.6,10.4,21.7,11.2,21.7,12L21.7,12z M2.3,12c0-0.8,0.1-1.6,0.3-2.3l0,0.1h4.2
	c-0.1,0.7-0.1,1.5-0.1,2.3s0,1.6,0.1,2.4l0-0.1H2.6C2.4,13.6,2.3,12.8,2.3,12L2.3,12z M9,9.7h6c0.1,0.7,0.1,1.5,0.1,2.3
	s0,1.6-0.1,2.4l0-0.1H9c-0.1-0.7-0.1-1.5-0.1-2.3S8.9,10.4,9,9.7L9,9.7z M12.9,2.3c0.7,1.5,1.3,3.2,1.7,5l0,0.2H9.3
	c0.4-1.9,1-3.7,1.8-5.3l-0.1,0.1c0.3,0,0.6,0,0.9,0S12.6,2.3,12.9,2.3z M8.4,3c-0.5,1.3-1,2.7-1.3,4.3l0,0.1H3.4
	c1.1-2,2.8-3.5,4.8-4.4L8.4,3L8.4,3z M3.4,16.6H7c0.3,1.7,0.8,3.2,1.3,4.6L8.3,21C6.2,20.1,4.5,18.5,3.4,16.6L3.4,16.6z M11.1,21.7
	c-0.7-1.5-1.3-3.2-1.7-5l0-0.2h5.3c-0.4,2-1,3.7-1.8,5.3l0.1-0.1c-0.3,0-0.6,0-0.9,0S11.4,21.7,11.1,21.7z M15.6,21
	c0.5-1.3,1-2.7,1.2-4.3l0-0.1h3.6c-1.1,2-2.8,3.5-4.8,4.3L15.6,21L15.6,21z"/>
</svg>
